# xmcd
#
# Track frame offsets: 
#        150
#        15197
#        33111
#        51745
#        66203
#        82900
#        100038
#        118477
#
# Disc length: 1880 seconds
#
# Revision: 0
# Processed by: cddbd v1.5.2PL0 Copyright (c) Steve Scherf et al.
# Submitted via: ExactAudioCopy v1.0b3
#
DISCID=5f075608
DTITLE=Ghyslain Lafleur - Ailleurs
DYEAR=2015
DGENRE=Country
TTITLE0=Le musicien
TTITLE1=Mon grand-père
TTITLE2=Ma mère
TTITLE3=Danser
TTITLE4=Me libérer
TTITLE5=Ailleurs
TTITLE6=Envoye dont, envoye dont
TTITLE7=Pretty baby
EXTD=
EXTT0=
EXTT1=
EXTT2=
EXTT3=
EXTT4=
EXTT5=
EXTT6=
EXTT7=
PLAYORDER=
